<?xml version="1.0" standalone="no"?>
<!DOCTYPE svg PUBLIC "-//W3C//DTD SVG 20010904//EN"
 "http://www.w3.org/TR/2001/REC-SVG-20010904/DTD/svg10.dtd">
<svg version="1.0" xmlns="http://www.w3.org/2000/svg"
     width="6.66667in" height="1.38667in" viewBox="0 0 10000.000000 4744.000000"
 preserveAspectRatio="xMidYMid meet">
<metadata>
Created by potrace 1.14, written by Peter Selinger 2001-2017
</metadata>
<g transform="translate(0.000000,4744.000000) scale(0.100000,-0.100000)"
fill="#000000" stroke="none">
<path d="M58673 35425 c-93 -20 -142 -46 -211 -109 -147 -137 -202 -263 -322
-740 -49 -193 -107 -414 -130 -491 -60 -206 -80 -316 -80 -442 0 -185 37 -280
155 -399 56 -57 88 -80 165 -117 121 -58 181 -72 305 -71 170 0 292 51 410
169 49 49 83 95 113 152 58 112 63 128 147 458 41 160 100 385 133 500 59 207
102 418 102 499 0 61 -27 162 -61 231 -130 264 -446 421 -726 360z"/>
<path d="M55720 35330 c-175 -32 -395 -189 -463 -330 -64 -132 -83 -303 -51
-458 9 -42 44 -162 79 -267 35 -104 95 -317 134 -472 38 -154 86 -323 106
-375 96 -249 252 -391 477 -436 319 -63 675 210 718 552 14 114 -14 265 -115
611 -24 83 -74 269 -110 415 -92 363 -145 488 -257 597 -123 120 -356 194
-518 163z"/>
<path d="M53048 33785 c-147 -37 -309 -154 -383 -276 -110 -180 -125 -424 -38
-602 32 -64 62 -99 292 -328 141 -141 335 -337 431 -436 307 -314 443 -392
665 -380 152 8 295 71 404 179 108 105 159 212 183 381 19 137 -11 264 -93
386 -44 66 -784 815 -914 925 -133 113 -236 155 -390 162 -67 2 -119 -1 -157
-11z"/>
<path d="M61409 33702 c-36 -10 -77 -25 -90 -33 -41 -27 -205 -178 -414 -380
-111 -107 -275 -263 -366 -347 -314 -289 -394 -422 -393 -647 1 -160 52 -279
172 -407 73 -78 177 -146 272 -179 54 -19 86 -23 185 -24 l120 0 88 42 c166
80 236 137 643 528 363 348 449 437 501 516 118 182 131 381 38 574 -134 277
-465 433 -756 357z"/>
<path d="M57050 31534 c-386 -37 -638 -120 -988 -328 -170 -101 -306 -209
-457 -360 -204 -205 -357 -436 -463 -702 -110 -275 -156 -525 -156 -839 0
-238 14 -358 69 -570 42 -162 88 -284 163 -428 32 -62 938 -1628 2013 -3482
1893 -3262 3212 -5536 4377 -7547 443 -766 557 -968 543 -972 -58 -17 -210
-38 -374 -51 -1303 -106 -2586 -384 -3872 -842 -254 -90 -410 -164 -571 -271
-263 -174 -466 -377 -636 -636 -354 -542 -496 -1233 -388 -1902 41 -257 126
-525 234 -744 117 -235 244 -409 446 -610 257 -257 503 -418 845 -554 527
-209 1127 -216 1686 -20 575 200 869 286 1301 378 1754 376 3701 233 5452
-401 219 -79 379 -147 761 -326 597 -278 905 -392 1384 -512 625 -156 1372
-230 1976 -195 741 43 1406 173 2101 411 359 123 676 258 1039 443 737 376
1353 823 1931 1400 297 298 515 551 741 861 1035 1424 1535 3248 1368 4989
-90 940 -369 1889 -791 2694 -42 79 -794 1382 -1671 2895 -2593 4472 -3294
5682 -3403 5872 -237 415 -375 592 -612 785 -274 225 -578 379 -917 465 -331
84 -729 86 -1057 5 -331 -81 -659 -242 -919 -451 -214 -173 -432 -433 -546
-652 -19 -37 -37 -67 -41 -67 -4 0 -78 40 -165 89 -412 231 -673 336 -938 376
-161 25 -506 31 -651 11 -149 -19 -355 -71 -489 -121 -379 -142 -787 -430
-989 -698 -31 -42 -113 -164 -182 -271 -112 -174 -129 -196 -153 -196 -14 0
-90 36 -171 81 -80 45 -174 95 -210 111 -550 251 -1165 269 -1749 51 -425
-158 -820 -477 -1083 -875 l-64 -96 -49 76 c-121 189 -321 527 -605 1022 -169
294 -346 599 -393 676 -46 78 -147 251 -222 385 -316 562 -462 775 -681 993
-183 183 -357 308 -589 421 -223 109 -427 173 -675 210 -103 15 -421 27 -510
19z"/>
<path d="M51484 31211 c-284 -45 -494 -309 -494 -621 0 -172 48 -291 164 -405
125 -124 224 -164 704 -290 158 -41 351 -93 428 -114 362 -101 497 -117 618
-73 224 81 387 293 419 542 14 117 -6 222 -65 339 -93 185 -243 282 -560 361
-173 44 -424 113 -620 171 -265 79 -468 109 -594 90z"/>
<path d="M52675 28293 c-34 -9 -483 -146 -840 -258 -187 -58 -369 -120 -405
-137 -145 -70 -276 -246 -316 -424 -22 -101 -15 -244 16 -329 93 -249 354
-418 623 -402 76 4 135 18 347 82 550 165 926 287 993 323 139 75 260 217 307
363 42 127 28 335 -29 447 -32 62 -97 142 -153 189 -64 53 -191 117 -273 138
-56 14 -224 19 -270 8z"/>
<path d="M22075 26280 c-784 -49 -1406 -174 -1976 -395 -865 -337 -1517 -899
-1838 -1587 -202 -432 -295 -862 -295 -1368 -1 -739 189 -1325 592 -1830 96
-120 308 -333 432 -431 382 -305 923 -579 1560 -790 291 -96 577 -176 1025
-286 1514 -371 1633 -405 1955 -569 158 -80 235 -131 307 -202 286 -282 258
-676 -65 -919 -185 -140 -429 -221 -807 -269 -154 -19 -468 -22 -600 -5 -394
51 -734 196 -953 406 -148 140 -282 364 -347 578 l-30 97 -1657 0 -1657 0 5
-57 c50 -604 232 -1116 575 -1623 571 -845 1590 -1472 2793 -1720 398 -82 734
-118 1186 -127 1370 -27 2618 245 3469 756 913 549 1437 1344 1572 2381 52
402 28 896 -62 1260 -159 647 -606 1220 -1258 1615 -342 207 -761 394 -1236
551 -364 120 -659 201 -1436 393 -916 225 -1259 332 -1550 482 -334 173 -498
383 -499 639 0 256 174 443 492 530 271 73 722 86 1039 29 276 -49 546 -175
696 -325 101 -101 188 -261 249 -460 l25 -84 1640 0 c901 0 1639 1 1639 3 0 2
-9 55 -20 118 -108 600 -291 1081 -575 1509 -371 558 -937 1019 -1581 1288
-498 209 -1032 336 -1669 398 -198 19 -916 28 -1140 14z"/>
<path d="M29170 24335 l0 -1195 -565 0 -565 0 0 -880 0 -880 539 0 539 0 5
-1892 c3 -1259 8 -1945 16 -2048 49 -677 140 -1036 338 -1334 275 -415 759
-615 1658 -686 213 -17 1097 -24 1435 -11 434 16 970 41 1008 47 l32 5 0 1088
0 1089 -367 5 c-395 5 -480 13 -648 62 -114 33 -176 67 -240 130 -86 86 -141
228 -167 425 -9 71 -12 477 -12 1605 l0 1510 732 3 732 2 0 880 0 880 -728 0
-729 0 -6 128 c-4 70 -7 607 -7 1195 l0 1067 -1500 0 -1500 0 0 -1195z"/>
<path d="M51958 24933 c-2 -329 -3 -866 -3 -1193 l0 -595 -562 -3 -563 -2 0
-880 0 -880 539 0 540 0 4 -1907 c3 -1299 8 -1956 16 -2058 60 -790 193 -1198
486 -1490 318 -319 816 -470 1693 -515 251 -12 965 -13 1287 0 428 17 939 41
973 46 l32 5 0 1088 0 1089 -367 5 c-394 5 -480 13 -646 62 -116 33 -180 67
-237 124 -86 86 -138 203 -166 378 -15 86 -17 282 -21 1636 l-5 1537 736 0
736 0 0 880 0 880 -735 0 -735 0 0 1195 0 1195 -1500 0 -1500 0 -2 -597z"/>
<path d="M38910 23353 c-1619 -70 -2603 -388 -3206 -1033 -303 -325 -505 -838
-529 -1348 -3 -59 -8 -126 -10 -150 l-5 -42 1466 2 1466 3 34 115 c53 178 103
270 193 360 113 111 232 174 412 219 147 36 248 44 494 38 178 -4 251 -10 323
-25 299 -66 488 -184 568 -357 113 -245 49 -484 -171 -640 -251 -178 -589
-256 -1696 -390 -472 -58 -681 -87 -939 -131 -1639 -280 -2420 -896 -2587
-2039 -25 -173 -24 -584 1 -750 76 -494 276 -900 597 -1210 401 -387 941 -621
1644 -712 176 -22 844 -26 1045 -5 575 59 981 167 1388 366 294 145 541 311
830 559 62 53 104 83 106 75 4 -14 110 -616 129 -730 l11 -68 1593 0 c1268 0
1593 3 1593 13 0 6 -13 39 -29 72 -29 63 -81 131 -190 253 -113 125 -162 224
-199 400 -14 68 -16 329 -22 2347 -7 2310 -7 2323 -46 2635 -73 591 -274 1046
-600 1361 -521 500 -1319 741 -2683 809 -180 9 -804 11 -981 3z m1267 -4760
c-9 -351 -37 -544 -112 -770 -116 -348 -353 -619 -650 -742 -300 -125 -681
-146 -1025 -56 -287 75 -488 266 -531 504 -14 84 1 259 30 344 64 186 250 370
459 456 143 59 396 127 837 226 440 98 701 173 890 254 50 21 94 39 99 40 5 1
6 -105 3 -256z"/>
<path d="M49810 23354 c-254 -22 -426 -54 -611 -113 -333 -107 -589 -262 -830
-501 -215 -214 -342 -398 -514 -745 -58 -115 -124 -259 -148 -318 l-44 -108
-6 158 c-4 87 -7 440 -7 786 l0 627 -1385 0 -1385 0 0 -3840 0 -3840 1524 0
1523 0 6 1478 c4 906 10 1523 16 1597 46 513 155 885 342 1165 317 473 914
702 1666 639 107 -9 222 -26 451 -66 l32 -6 0 1526 0 1525 -27 6 c-111 22
-480 41 -603 30z"/>
</g>
</svg>
